<svg xmlns="http://www.w3.org/2000/svg" width="594.671" height="129.625" viewBox="0 0 594.671 129.625">
  <g id="Group_243" data-name="Group 243" transform="translate(13410.365 16835.205)">
    <g id="Group_158" data-name="Group 158" transform="translate(-13410.364 -16835.205)">
      <g id="Group_157" data-name="Group 157" transform="translate(0 0)">
        <g id="Group_2" data-name="Group 2" transform="translate(0 0)">
          <path id="XMLID_40_" d="M14.023,17.275,87.107.462a18.126,18.126,0,0,1,21.661,13.56l16.813,73.085a18.126,18.126,0,0,1-13.56,21.661l-10.528,2.421L38.936,125.582l-17.614,4.053-4.053-17.614L5.329,60.09.462,38.936a18.126,18.126,0,0,1,13.56-21.661Z" transform="translate(-0.01 -0.01)" fill="#f89a1c"/>
          <g id="XMLID_21_" transform="translate(17.434 14.125)">
            <path id="XMLID_39_" d="M154.987,141.424a2.155,2.155,0,1,0-1.645-.225,2.164,2.164,0,0,0,1.645.225Z" transform="translate(-76.618 -67.436)" fill="#fff"/>
            <path id="XMLID_38_" d="M41.9,43.571a3.334,3.334,0,0,0-2.391,4.06,3.293,3.293,0,0,0,.434.978,46.153,46.153,0,0,0-9.837,42.558,46.714,46.714,0,0,0,14.41,23.648,3.33,3.33,0,1,0,1.975-1.437,3.271,3.271,0,0,0-1,.446A45.36,45.36,0,0,1,31.457,90.819a44.807,44.807,0,0,1,9.476-41.232,3.328,3.328,0,1,0,.966-6.016Z" transform="translate(-28.526 -31.021)" fill="#fff"/>
            <path id="XMLID_37_" d="M124.875,150.358l1.174.96a40.657,40.657,0,0,1-5.992,5.2,44.093,44.093,0,0,1-7.483,4.286,49.341,49.341,0,0,1-7.746,2.715,45.617,45.617,0,0,1-24.095-.226l.514-1.449-4.316-1.541-1.541,4.316,4.316,1.541.556-1.559a46.982,46.982,0,0,0,24.914.257,49.47,49.47,0,0,0,7.966-2.794,45.65,45.65,0,0,0,7.722-4.42,42.426,42.426,0,0,0,6.261-5.46l1.3,1.064,2.9-3.552-3.552-2.9Z" transform="translate(-46.738 -71.18)" fill="#fff"/>
            <path id="XMLID_36_" d="M78.4,132.871a24.2,24.2,0,0,0,20.811,3.852,26.514,26.514,0,0,0,6.273-2.47,22.086,22.086,0,0,0,2.06-1.3l1.266,1.308,3.289-3.2-3.191-3.289-3.289,3.2.942.972c-.562.385-1.143.752-1.755,1.094a25.56,25.56,0,0,1-5.949,2.342,22.837,22.837,0,0,1-19.485-3.509l.966-.99-3.277-3.2-3.2,3.283,3.277,3.2Z" transform="translate(-46.144 -63.749)" fill="#fff"/>
            <path id="XMLID_35_" d="M66.068,90.5l-1.382.293a23.245,23.245,0,0,1,4.646-16.269l.96,1,3.3-3.179-3.179-3.3-3.3,3.179,1.247,1.3a24.612,24.612,0,0,0-5.044,17.571l-1.736.367.948,4.488,4.488-.948Z" transform="translate(-41.371 -40.961)" fill="#fff"/>
            <path id="XMLID_34_" d="M133.028,43.378a3.545,3.545,0,0,0-.361.116,42.077,42.077,0,0,0-17.883-15.132A43.861,43.861,0,0,0,90.6,25.226a3.328,3.328,0,1,0,.226,1.369,42.5,42.5,0,0,1,23.385,3.032A40.653,40.653,0,0,1,131.5,44.253a3.33,3.33,0,1,0,1.528-.874Z" transform="translate(-50.153 -23.113)" fill="#fff"/>
            <path id="XMLID_33_" d="M123.276,106.807c.006,12.686-8.07,22.664-21.074,26.033a30.512,30.512,0,0,1-18.714-1l.666-1.266-4.053-2.14-2.14,4.053,4.053,2.14.819-1.553a31.924,31.924,0,0,0,19.711,1.113c13.463-3.491,21.894-13.75,22.114-26.84l6.548-1.7a36.653,36.653,0,0,1-.238,4.72l-1.425-.3-.935,4.488,4.488.935L134.03,111l-1.694-.355a38.917,38.917,0,0,0,.232-5.924l-.031-.862-9.269,2.4v.544Z" transform="translate(-47.737 -54.493)" fill="#fff"/>
            <path id="XMLID_32_" d="M56.575,65.8a32.625,32.625,0,0,0-2.6,23.7A33.9,33.9,0,0,0,59,100.475l-1.327,1.149,3,3.467,3.467-3-3-3.467-1.082.935a32.573,32.573,0,0,1-4.732-10.406c-4-15.431,3.228-30.208,17.29-36.059l.416,1.388,4.39-1.321L76.1,48.77l-4.39,1.321.5,1.669A31.133,31.133,0,0,0,56.575,65.8Z" transform="translate(-37.974 -33.084)" fill="#fff"/>
            <path id="XMLID_31_" d="M72.132,38.5a39.8,39.8,0,0,0-22,14.685l-1.467-.911L46.24,56.169l3.895,2.421L52.556,54.7l-1.241-.77A38.4,38.4,0,0,1,72.48,39.845c16.807-4.359,32.587,2.28,40.455,16.935l-6.548,1.7a28.155,28.155,0,0,0-8.773-9.428l.789-1.614-4.121-2.005-2.005,4.121L96.4,51.559,97,50.312a26.882,26.882,0,0,1,8.443,9.311l.263.471,9.269-2.4-.391-.77C106.547,41.123,89.887,33.9,72.132,38.5Z" transform="translate(-35.41 -28.561)" fill="#fff"/>
            <path id="XMLID_30_" d="M57.426,122.864l-.758,1.247a38.578,38.578,0,0,1-14.361-21.466,39.042,39.042,0,0,1-.232-18.941l1.418.471,1.443-4.353L40.583,78.38,39.14,82.733l1.614.538A40.38,40.38,0,0,0,40.962,103a39.923,39.923,0,0,0,14.985,22.3l-.9,1.473,3.913,2.384,2.384-3.913Z" transform="translate(-32.651 -44.591)" fill="#fff"/>
            <path id="XMLID_27_" d="M82.68,149.251a3.394,3.394,0,0,0-.74.293l-.024-.006-.006.024a3.3,3.3,0,0,0-1.449,4.237l-.024.073.067.024a3.328,3.328,0,0,0,5.961.122,40.141,40.141,0,0,0,18.831-.367,38.121,38.121,0,0,0,19.8-12.014,3.33,3.33,0,1,0,.935-6.358.023.023,0,0,0,.018-.006L126,135.25l-.024.037q-.2.028-.4.073a3.341,3.341,0,0,0-2.391,4.066,3.284,3.284,0,0,0,.764,1.406,36.812,36.812,0,0,1-19.014,11.482,38.792,38.792,0,0,1-18.109.373,3.353,3.353,0,0,0-.1-1.039,3.3,3.3,0,0,0-4.047-2.4Zm43.2-12.76a2.164,2.164,0,1,1-1.547,2.641,2.164,2.164,0,0,1,1.547-2.641Z" transform="translate(-48.599 -66.691)" fill="#fff"/>
            <path id="XMLID_22_" d="M116.006,65.156a3.72,3.72,0,0,0-.7.269,20.173,20.173,0,0,0-15.835-6.034c.024.067.043.134.061.2a2.808,2.808,0,0,1,.061.312c-.018-.1-.037-.208-.061-.312a3.341,3.341,0,1,0,.086,1.18,18.841,18.841,0,0,1,14.612,5.539,3.336,3.336,0,1,0,1.779-1.156ZM96.894,62.68a2.312,2.312,0,1,1,1.419-1.067A2.318,2.318,0,0,1,96.894,62.68Zm2.745-2.207Zm-.018-.361a.472.472,0,0,0,.012.092C99.627,60.173,99.627,60.143,99.621,60.112Z" transform="translate(-53.563 -36.313)" fill="#fff"/>
          </g>
        </g>
        <path id="XMLID_67_" d="M251.862,53.106v1.681q0,4.457-4.2,4.457H245.4q-4.2,0-4.2-4.457V37.467q0-4.457,4.2-4.457h2.262q4.2,0,4.2,4.457v2.959h-3.509v-2.7a1.374,1.374,0,0,0-1.571-1.535h-.691c-.929,0-1.388.514-1.388,1.535V54.531c0,1.021.465,1.535,1.388,1.535h.874c.923,0,1.388-.514,1.388-1.535V53.106Z" transform="translate(-93.554 -22.616)" fill="#fff"/>
        <path id="XMLID_65_" d="M300.18,59.244V33.01h8.694v3.179h-5.191v7.966h4.6v3.179h-4.6v8.731h5.191v3.179Z" transform="translate(-107.546 -22.616)" fill="#fff"/>
        <path id="XMLID_62_" d="M355.566,33.01h6.872q4.017,0,4.017,4.494v6.468q0,3.439-2.085,4.347l2.446,10.925H363.49l-2.3-10.6h-2.121v10.6H355.56V33.01Zm3.509,12.643h2.3c1.045,0,1.571-.636,1.571-1.9V38.091c0-1.266-.526-1.9-1.571-1.9h-2.3Z" transform="translate(-119.783 -22.616)" fill="#fff"/>
        <path id="XMLID_60_" d="M419.992,36.189V59.244h-3.509V36.189H413.12V33.01h10.228v3.179Z" transform="translate(-131.645 -22.616)" fill="#fff"/>
        <path id="XMLID_58_" d="M470.19,59.244V33.01H473.7V59.244Z" transform="translate(-144.153 -22.616)" fill="#fff"/>
        <path id="XMLID_56_" d="M526.473,44.155v3.179h-4.6v11.91H518.36V33.01h8.694v3.179h-5.191v7.966Z" transform="translate(-154.431 -22.616)" fill="#fff"/>
        <path id="XMLID_54_" d="M573.52,59.244V33.01h3.509V59.244Z" transform="translate(-166.449 -22.616)" fill="#fff"/>
        <path id="XMLID_52_" d="M632.058,53.106v1.681q0,4.457-4.2,4.457H625.59q-4.2,0-4.2-4.457V37.467q0-4.457,4.2-4.457h2.268q4.2,0,4.2,4.457v2.959h-3.509v-2.7a1.374,1.374,0,0,0-1.571-1.535h-.691c-.929,0-1.388.514-1.388,1.535V54.531c0,1.021.465,1.535,1.388,1.535h.874c.923,0,1.388-.514,1.388-1.535V53.106Z" transform="translate(-176.426 -22.616)" fill="#fff"/>
        <path id="XMLID_49_" d="M683.579,59.244H680.07V37.5q0-4.494,4.2-4.494H686.9q4.2,0,4.2,4.494V59.244H687.59V49.633h-4.017v9.611Zm4.017-12.79V37.724a1.358,1.358,0,0,0-1.535-1.535h-.948a1.358,1.358,0,0,0-1.535,1.535v8.731Z" transform="translate(-190.118 -22.616)" fill="#fff"/>
        <path id="XMLID_46_" d="M740.25,59.244V33.01h6.1q4.934,0,4.934,5.044V55.442q0,3.8-4.2,3.8Zm3.5-3.179h2.635c.923,0,1.388-.391,1.388-1.168V38.091c0-1.266-.526-1.9-1.571-1.9h-2.452Z" transform="translate(-204.885 -22.616)" fill="#fff"/>
        <path id="XMLID_43_" d="M804.367,59.244q-4.237,0-4.237-4.457V37.5q0-4.494,4.2-4.494h3.363q4.2,0,4.2,4.494V54.787q0,4.457-4.237,4.457Zm.844-3.179H807c.923,0,1.388-.514,1.388-1.535V37.724a1.374,1.374,0,0,0-1.571-1.535h-1.645a1.358,1.358,0,0,0-1.535,1.535V54.531a1.372,1.372,0,0,0,1.571,1.535Z" transform="translate(-219.351 -22.616)" fill="#fff"/>
        <path id="jundiai" d="M43.483.134l-11.524.4H27l-9.916-.4Q5.159-1.074,5.159-12.682L4.891-21.2q0-5.1.1-7.583A48.5,48.5,0,0,1,5.963-35.7a10.09,10.09,0,0,1,4.221-6.71q3.35-2.282,9.313-2.282,2.68-.313,5.059-.391t5.594-.078h8.04q3.886,0,6.3.17A49.828,49.828,0,0,1,50.82-44a7.2,7.2,0,0,1,5.46,4.347,23.984,23.984,0,0,1,1.541,9.44h-5.36v-.412a28.879,28.879,0,0,0-.368-5.091,4.148,4.148,0,0,0-1.742-2.889,13.245,13.245,0,0,0-5.058-1.376,83.153,83.153,0,0,0-10.184-.482q-2.412,0-7.3.235T20.435-40q-5.762.472-7.37,2.056t-2.01,5.491q-.4,3.907-.469,7.108t-.067,6.1q0,8.557,1.708,11.791t9.079,3.234H41.741q6.164,0,8.576-1.455t2.412-7.01v-1.786h5.628q0,8.5-2.68,11.555T43.483.134ZM66.531,0H60.179L86.589-44.689h7.174L120.389,0h-6.221l-5.915-10.05H72.364Zm8.437-14.539h30.643l-15.429-26.2ZM157.316,0,129.444-40.133V0h-5.427V-44.689h8.828L159.537-6.374l26.8-38.315h8.7V0H189.61V-40.133L161.671,0Zm99.16-31.959a38.137,38.137,0,0,1-.536,6.767,8.513,8.513,0,0,1-2.11,4.556,9.554,9.554,0,0,1-3.92,2.379,24.038,24.038,0,0,1-7.035.77H211.586V0h-5.427V-44.689H243.21q7.3,0,10.285,2.714T256.476-31.959Zm-5.628.268q0-4.69-1.742-6.566t-6.432-1.876H211.586v18.157h28.006q6.7,0,8.978-1.675T250.848-31.691ZM269.943,0h-5.427V-44.689h5.427Zm11.122,0V-44.689h9.01l41.24,40.4v-40.4h5.427V0h-8.9L286.492-40.6V0Zm65.593,0h-6.352l26.411-44.689h7.174L400.516,0H394.3L388.38-10.05H352.491Zm8.437-14.539h30.643l-15.429-26.2Zm89.651-24.274A17.278,17.278,0,0,0,439.654-40a78.31,78.31,0,0,0-9.514-.468h-1.876q-4.422,0-9.146.407a23.139,23.139,0,0,0-6.867,1.358,4.744,4.744,0,0,0-2.747,2.579,11.378,11.378,0,0,0-.6,3.937q0,4.141,2.245,5.635a11.813,11.813,0,0,0,6.533,1.493h15.41q2.747,0,4.891.067t6.466.534a11.42,11.42,0,0,1,6.968,3.04q2.646,2.573,2.647,8.788a15.922,15.922,0,0,1-1.273,6.783,8.322,8.322,0,0,1-4.322,4.076A23.229,23.229,0,0,1,441.095,0q-4.322.4-9.414.4H428.13q-5.025,0-7.538-.1t-7.7-.8q-5.193-.7-7.4-3.649t-2.211-10.322H408.7v.99a16.575,16.575,0,0,0,.637,5.339q.637,1.733,3.283,2.546a30.715,30.715,0,0,0,7.069,1.061q4.422.248,8.71.248A95.579,95.579,0,0,0,440.157-4.9q4.79-.608,6.532-2.3t1.742-5.541q0-4.865-2.241-6.182T438.6-20.234H428.36l-11.975-.335q-6.289,0-9.7-2.412t-3.412-8.174a17.439,17.439,0,0,1,1.472-7.6,8.578,8.578,0,0,1,4.985-4.355,30.539,30.539,0,0,1,8.264-1.675q4.751-.368,10.638-.368,4.885,0,7.059.1t7.093.628a11.082,11.082,0,0,1,7.528,3.524q2.609,3,2.609,9.143h-5.427a12.511,12.511,0,0,0-.7-4.823A4.288,4.288,0,0,0,444.746-38.813Z" transform="translate(140.613 105.294)" fill="#1883bb"/>
      </g>
    </g>
  </g>
</svg>
